<svg width="238" height="41" viewBox="0 0 238 41" fill="none" xmlns="http://www.w3.org/2000/svg">
<path d="M11.544 16.936H28.952L32.216 20.264V37.672L28.952 41H5.016L1.752 37.672V31.336L0.664 29.288H12.632L11.544 31.336V33.512H22.424V24.424H5.016L1.752 21.096V3.688L5.016 0.359997H28.952L32.216 3.688V10.024L33.304 12.136H21.336L22.424 10.024V7.848H11.544V16.936ZM69.365 4.52V36.84L71.541 41H57.461L59.573 36.84V24.424H48.757V36.84L50.933 41H36.789L38.965 36.84V4.52L36.789 0.359997H50.933L48.757 4.52V16.936H59.573V4.52L57.461 0.359997H71.541L69.365 4.52ZM94.623 0.359997H108.767L106.591 4.52V37.672L103.327 41H79.391L76.127 37.672V26.408L75.039 24.36H87.007L85.919 26.408V33.512H96.799V4.52L94.623 0.359997ZM145.015 16.936H161.591L160.503 19.048V37.672L157.239 41H133.303L130.039 37.672V3.688L133.303 0.359997H157.239L160.503 3.688V12.136H150.711V7.848H139.831V33.512H150.711V24.424H147.191L145.015 16.936ZM202.415 41H190.447L191.727 38.504L189.999 33.384H176.303L174.511 38.504L175.855 41H163.887L177.135 2.856L175.855 0.359997H190.447L189.167 2.856L202.415 41ZM178.927 25.96H187.375L183.151 13.736L178.927 25.96ZM215.544 16.936H232.952L236.216 20.264V37.672L232.952 41H209.016L205.752 37.672V31.336L204.664 29.288H216.632L215.544 31.336V33.512H226.424V24.424H209.016L205.752 21.096V3.688L209.016 0.359997H232.952L236.216 3.688V10.024L237.304 12.136H225.336L226.424 10.024V7.848H215.544V16.936Z" fill="black"/>
</svg>
