<svg width="23" height="18" viewBox="0 0 23 18" fill="none" xmlns="http://www.w3.org/2000/svg">
<g clip-path="url(#clip0_16_43)">
<path d="M22.494 3.08266C22.494 1.6927 21.3596 0.565918 19.9604 0.565918C18.5611 0.565918 17.4268 1.6927 17.4268 3.08266V14.9833C17.4268 16.3732 18.5611 17.5 19.9604 17.5C21.3596 17.5 22.494 16.3732 22.494 14.9833V3.08266Z" fill="#2896CC"/>
<path d="M3.03962 17.458C4.43888 17.458 5.57321 16.3313 5.57321 14.9413C5.57321 13.5513 4.43888 12.4246 3.03962 12.4246C1.64035 12.4246 0.506027 13.5513 0.506027 14.9413C0.506027 16.3313 1.64035 17.458 3.03962 17.458Z" fill="#2896CC"/>
<path d="M21.758 1.23705C20.7687 0.254318 19.1641 0.254318 18.1748 1.23705L12.2269 7.1454C11.8288 7.54089 11.1773 7.54089 10.7791 7.1454L4.8252 1.23705C3.83589 0.254318 2.23129 0.254318 1.24198 1.23705C0.252673 2.21977 0.252673 3.81371 1.24198 4.79644L9.54853 13.0478C9.59679 13.1017 9.64505 13.1616 9.69934 13.2096C10.194 13.7009 10.8455 13.9466 11.497 13.9466C12.1485 13.9466 12.8 13.7009 13.2946 13.2096C13.3489 13.1556 13.3972 13.1017 13.4454 13.0478L21.752 4.79644C22.7413 3.81371 22.7413 2.21977 21.752 1.23705H21.758Z" fill="white"/>
</g>
<defs>
<clipPath id="clip0_16_43">
<rect width="22" height="17" fill="white" transform="translate(0.5 0.5)"/>
</clipPath>
</defs>
</svg>
